<svg width="40" height="40" viewBox="0 0 40 40" fill="none" xmlns="http://www.w3.org/2000/svg">
<path d="M0 6.22568C0 2.78733 2.78733 0 6.22568 0H33.7743C37.2127 0 40 2.78733 40 6.22568V33.7743C40 37.2127 37.2127 40 33.7743 40H6.22568C2.78733 40 0 37.2127 0 33.7743V6.22568Z" fill="#3B3D43"/>
<path fill-rule="evenodd" clip-rule="evenodd" d="M30.2463 13.4965C29.7564 14.071 29.433 14.8096 29.3205 15.6115C29.2946 15.7964 29.2868 15.9157 29.2847 16.1627L29.2828 16.381L29.1989 16.4735C28.7838 16.9312 28.5189 17.6036 28.5066 18.2312C28.5043 18.3501 28.5058 18.3582 28.5354 18.3876C28.559 18.4111 28.577 18.4192 28.6095 18.4211L28.6524 18.4235L29.0129 18.1552L29.3734 17.887L29.3789 17.9794C29.3852 18.0844 29.402 18.1197 29.4549 18.1385C29.5034 18.1557 31.5204 18.1542 31.5584 18.1369C31.6045 18.1159 31.6205 18.0795 31.6272 17.9798L31.6334 17.8876L31.9849 18.1499C32.2354 18.3369 32.3456 18.4142 32.3682 18.4188C32.4125 18.428 32.4642 18.4007 32.4865 18.3565C32.517 18.2962 32.4956 18.0121 32.4404 17.7422C32.3458 17.2805 32.1095 16.8074 31.8066 16.4735L31.7227 16.381L31.7208 16.1627C31.718 15.8335 31.6979 15.6331 31.6375 15.3333C31.4848 14.5745 31.1089 13.8351 30.6367 13.3647C30.5571 13.2854 30.5105 13.2646 30.4616 13.2865C30.4377 13.2972 30.3104 13.4213 30.2463 13.4965ZM30.1992 14.9202C30.3843 14.8002 30.6212 14.8002 30.8063 14.9202C30.8396 14.9418 30.8801 14.9726 30.8963 14.9888C31.0354 15.1274 31.0924 15.3674 31.0297 15.55C31.003 15.6278 30.945 15.7248 30.8963 15.7734C30.7577 15.9116 30.5159 15.9687 30.3334 15.9064C30.2553 15.8797 30.1579 15.822 30.1092 15.7734C30.0118 15.6763 29.9507 15.5251 29.9507 15.3811C29.9507 15.1894 30.0403 15.0232 30.1992 14.9202ZM29.9554 18.7974C29.8782 18.9006 29.8323 19.0224 29.8186 19.1605C29.8006 19.3404 29.9396 19.7189 30.253 20.3439C30.4205 20.678 30.4339 20.6969 30.5027 20.6969C30.5719 20.6969 30.5855 20.6777 30.7518 20.3461C31.0657 19.7199 31.2049 19.3408 31.1869 19.1605C31.1508 18.7977 30.8742 18.5355 30.5174 18.526C30.3641 18.522 30.214 18.5706 30.0864 18.6657C30.0201 18.715 30.0075 18.7278 29.9554 18.7974Z" fill="#1874FF"/>
<path fill-rule="evenodd" clip-rule="evenodd" d="M9.59722 16.4289C9.73343 16.3284 9.94295 16.3977 9.96966 16.5648L10.7423 21.3953C10.7446 21.4097 10.7649 21.4111 10.7691 21.3971L12.1786 16.7051C12.324 16.3334 12.5419 16.1476 12.8326 16.1476H14.2595C14.5898 16.1476 14.8078 16.3334 14.9135 16.7051L16.323 21.3971C16.3272 21.4111 16.3475 21.4097 16.3498 21.3953L17.6285 13.4011C17.6681 13.0982 17.8729 12.9468 18.2428 12.9468H19.6823H20.7002L22.7999 12.993C22.7999 12.993 22.9868 13.0166 23.1642 13.0815C23.2299 13.0955 23.2866 13.1226 23.3344 13.163C23.3823 13.1938 23.4222 13.2296 23.4474 13.2709C23.4749 13.3159 23.4916 13.3687 23.5017 13.4244C23.5147 13.4733 23.5211 13.5261 23.5211 13.5827V21.9244C23.5211 23.0448 23.7754 23.8783 24.2839 24.4248C24.7923 24.9577 25.4899 25.2241 26.3764 25.2241C27.263 25.2241 27.954 24.9577 28.4495 24.4248C28.9579 23.8783 29.2122 23.3217 29.2122 22.2013V21.6009C29.2122 21.4506 29.2578 21.3276 29.3491 21.232C29.4403 21.1363 29.5577 21.0885 29.7011 21.0885H31.4612C31.6046 21.0885 31.7155 21.1363 31.7937 21.232C31.8849 21.3276 31.9306 21.4506 31.9306 21.6009V22.2013C31.9306 23.513 31.7024 24.3155 31.2461 25.1626C30.8028 25.9961 30.1639 26.6178 29.3295 27.0277C28.5081 27.424 27.5238 27.6221 26.3764 27.6221C25.2421 27.6221 24.2578 27.424 23.4234 27.0277C22.5889 26.6178 21.9436 25.9961 21.4872 25.1626C21.0309 24.3155 20.8027 23.2361 20.8027 21.9244V15.6387C20.8027 15.6387 20.8027 15.6387 20.8027 15.6387L18.9562 26.7205C18.9298 26.9133 18.844 27.0785 18.6986 27.2161C18.5665 27.34 18.3947 27.402 18.1833 27.402H16.3007C16.0893 27.402 15.9241 27.3469 15.8052 27.2368C15.6863 27.1266 15.6005 27.0027 15.5476 26.8651L13.5591 20.9976C13.5549 20.9851 13.5372 20.9851 13.533 20.9976L11.5445 26.8651C11.4256 27.223 11.1812 27.402 10.8112 27.402H8.92855C8.70395 27.402 8.52561 27.34 8.39349 27.2161C8.26137 27.0785 8.18209 26.9133 8.15567 26.7205L6.55163 16.9218C6.52155 16.738 6.73988 16.6004 6.90784 16.6813C7.25126 16.8465 7.63634 16.9392 8.04306 16.9392C8.62496 16.9392 9.16252 16.7496 9.59722 16.4289Z" fill="#FAFBFC"/>
<path d="M9.83337 14.2897C9.83337 15.2781 9.0312 16.0794 8.04168 16.0794C7.05216 16.0794 6.25 15.2781 6.25 14.2897C6.25 13.3012 7.05216 12.5 8.04168 12.5C9.0312 12.5 9.83337 13.3012 9.83337 14.2897Z" fill="#1874FF"/>
</svg>
